<mxfile host="app.diagrams.net" agent="Mozilla/5.0 (Windows NT 10.0; Win64; x64) AppleWebKit/537.36 (KHTML, like Gecko) Chrome/133.0.0.0 Safari/537.36" version="26.0.16">
  <diagram name="Page-1" id="eNsGda5qm_5_mq_R6bHS">
    <mxGraphModel dx="988" dy="523" grid="1" gridSize="10" guides="1" tooltips="1" connect="1" arrows="1" fold="1" page="1" pageScale="1" pageWidth="827" pageHeight="1169" math="0" shadow="0">
      <root>
        <mxCell id="0" />
        <mxCell id="1" parent="0" />
        <mxCell id="yhK1gvrLa2TBpqXnLQNI-1" value="" style="aspect=fixed;sketch=0;html=1;dashed=0;whitespace=wrap;verticalLabelPosition=bottom;verticalAlign=top;fillColor=#2875E2;strokeColor=#ffffff;points=[[0.005,0.63,0],[0.1,0.2,0],[0.9,0.2,0],[0.5,0,0],[0.995,0.63,0],[0.72,0.99,0],[0.5,1,0],[0.28,0.99,0]];shape=mxgraph.kubernetes.icon2;kubernetesLabel=1;prIcon=cronjob" vertex="1" parent="1">
          <mxGeometry x="120" y="230" width="39.58" height="38" as="geometry" />
        </mxCell>
        <mxCell id="yhK1gvrLa2TBpqXnLQNI-2" value="" style="aspect=fixed;sketch=0;html=1;dashed=0;whitespace=wrap;verticalLabelPosition=bottom;verticalAlign=top;fillColor=#2875E2;strokeColor=#ffffff;points=[[0.005,0.63,0],[0.1,0.2,0],[0.9,0.2,0],[0.5,0,0],[0.995,0.63,0],[0.72,0.99,0],[0.5,1,0],[0.28,0.99,0]];shape=mxgraph.kubernetes.icon2;kubernetesLabel=1;prIcon=api" vertex="1" parent="1">
          <mxGeometry x="310" y="230" width="39.58" height="38" as="geometry" />
        </mxCell>
        <mxCell id="yhK1gvrLa2TBpqXnLQNI-3" value="vault" style="outlineConnect=0;dashed=0;verticalLabelPosition=bottom;verticalAlign=top;align=center;html=1;shape=mxgraph.aws3.vault;fillColor=#E05243;gradientColor=none;" vertex="1" parent="1">
          <mxGeometry x="500" y="229" width="29.88" height="41.5" as="geometry" />
        </mxCell>
        <mxCell id="yhK1gvrLa2TBpqXnLQNI-5" value="POM DB" style="image;aspect=fixed;perimeter=ellipsePerimeter;html=1;align=center;shadow=0;dashed=0;spacingTop=3;image=img/lib/active_directory/database.svg;" vertex="1" parent="1">
          <mxGeometry x="210" y="360" width="94.59" height="70" as="geometry" />
        </mxCell>
        <mxCell id="yhK1gvrLa2TBpqXnLQNI-6" value="Archive DB" style="image;aspect=fixed;perimeter=ellipsePerimeter;html=1;align=center;shadow=0;dashed=0;spacingTop=3;image=img/lib/active_directory/database.svg;" vertex="1" parent="1">
          <mxGeometry x="370" y="360" width="94.59" height="70" as="geometry" />
        </mxCell>
        <mxCell id="yhK1gvrLa2TBpqXnLQNI-7" style="edgeStyle=orthogonalEdgeStyle;rounded=0;orthogonalLoop=1;jettySize=auto;html=1;entryX=0.091;entryY=0.51;entryDx=0;entryDy=0;entryPerimeter=0;" edge="1" parent="1" source="yhK1gvrLa2TBpqXnLQNI-1" target="yhK1gvrLa2TBpqXnLQNI-2">
          <mxGeometry relative="1" as="geometry" />
        </mxCell>
        <mxCell id="yhK1gvrLa2TBpqXnLQNI-8" style="edgeStyle=orthogonalEdgeStyle;rounded=0;orthogonalLoop=1;jettySize=auto;html=1;entryX=0;entryY=0.5;entryDx=0;entryDy=0;entryPerimeter=0;" edge="1" parent="1" source="yhK1gvrLa2TBpqXnLQNI-2" target="yhK1gvrLa2TBpqXnLQNI-3">
          <mxGeometry relative="1" as="geometry">
            <mxPoint x="350" y="250" as="sourcePoint" />
          </mxGeometry>
        </mxCell>
      </root>
    </mxGraphModel>
  </diagram>
</mxfile>
